<?xml version="1.0" standalone="no"?>
<!DOCTYPE svg PUBLIC "-//W3C//DTD SVG 20010904//EN"
 "http://www.w3.org/TR/2001/REC-SVG-20010904/DTD/svg10.dtd">
<svg version="1.0" xmlns="http://www.w3.org/2000/svg"
 width="820.000000pt" height="820.000000pt" viewBox="0 0 820.000000 820.000000"
 preserveAspectRatio="xMidYMid meet">

<g transform="translate(0.000000,820.000000) scale(0.100000,-0.100000)"
fill="#000000" stroke="none">
<path d="M3410 6699 c-465 -52 -869 -199 -1230 -447 -458 -314 -741 -751 -815
-1253 -19 -132 -19 -207 0 -330 28 -188 84 -308 195 -420 87 -88 162 -128 298
-160 76 -19 108 -21 247 -16 182 6 291 26 485 89 358 116 843 341 1700 787
767 400 1137 582 1393 686 l129 52 -57 69 c-219 262 -527 505 -842 663 -271
136 -511 213 -813 262 -144 24 -546 34 -690 18z"/>
<path d="M7715 6663 c-147 -18 -351 -86 -485 -162 l-85 -49 -110 24 c-60 12
-172 36 -248 52 l-137 30 99 -104 c211 -219 371 -468 482 -753 21 -54 40 -89
43 -81 5 15 66 306 88 422 11 56 14 60 79 108 152 113 261 234 355 392 70 119
70 128 2 127 -29 -1 -66 -4 -83 -6z"/>
<path d="M6595 5866 c-204 -134 -860 -559 -1650 -1071 -269 -175 -543 -352
-607 -394 -281 -182 -511 -332 -761 -493 -147 -95 -451 -292 -675 -438 -932
-605 -1322 -859 -1804 -1170 -191 -124 -345 -226 -344 -228 6 -5 697 238 996
351 443 168 962 373 1280 507 299 126 508 209 615 243 706 228 1210 145 1423
-232 131 -234 149 -516 48 -766 -131 -324 -443 -620 -842 -800 -105 -47 -107
-52 -22 -34 363 75 761 256 1063 483 692 522 1085 1310 1085 2174 0 386 -72
734 -222 1080 l-41 94 64 66 c35 36 66 69 69 72 74 74 287 331 382 460 71 97
150 220 140 220 -4 0 -92 -56 -197 -124z"/>
</g>
</svg>
